PathFileType	4	(X/Y/Z)	./resultDataOpenSim/trcMotMarkerGrf/sub09/qtm-01-06.trc
DataRate	CameraRate	NumFrames	NumMarkers	Units	OrigDataRate	OrigDataStartFrame	OrigNumFrames
250.000000	250.000000	7	24	m	250.000000	242	482
Frame#	Time	L.Toe.Tip			R.Toe.Tip			L.Ankle.Lat			R.Ankle.Lat			L.Ankle.Med			R.Ankle.Med			L.Heel			R.Heel			L.Knee.Lat			R.Knee.Lat			L.Knee.Med			R.Knee.Med			L.Thigh.Upper			R.Thigh.Upper			L.ASIS			R.ASIS			V.Sacral			L.Acromium			R.Acromium			C7			L.Elbow			R.Elbow			L.Wrist.Lat			R.Wrist.Lat
		X1	Y1	Z1	X2	Y2	Z2	X3	Y3	Z3	X4	Y4	Z4	X5	Y5	Z5	X6	Y6	Z6	X7	Y7	Z7	X8	Y8	Z8	X9	Y9	Z9	X10	Y10	Z10	X11	Y11	Z11	X12	Y12	Z12	X13	Y13	Z13	X14	Y14	Z14	X15	Y15	Z15	X16	Y16	Z16	X17	Y17	Z17	X18	Y18	Z18	X19	Y19	Z19	X20	Y20	Z20	X21	Y21	Z21	X22	Y22	Z22	X23	Y23	Z23	X24	Y24	Z24

242	0.964	0.15816987	0.039621361	0.0050002931	0.46302844	0.098279694	0.11628472	0.012479908	0.075672988	-0.04022677	0.3153141	0.11577214	0.136766	0.032223664	0.095936907	0.055801964	0.33573872	0.14874546	0.04407508	-0.062591562	0.046283372	0.003865391	0.25252496	0.090108037	0.082631784	0.13355254	0.47405598	-0.097117181	0.40172627	0.56531522	0.16637565	0.12744214	0.47875732	0.027602714	0.39248334	0.54717645	0.041850518	0.16312127	0.89789993	-0.15642394	0.17631549	0.9049764	0.21309774	0.25127632	0.98349459	-0.098725246	0.24992468	0.99278828	0.13959127	0.088774387	1.0399648	0.026710382	0.26024589	1.4325585	-0.14136935	0.22212593	1.4498832	0.18533441	0.17592942	1.4926695	0.016216558	0.14706283	1.0766391	-0.21358445	0.064511963	1.1259366	0.27765935	0.35882418	0.90745387	-0.20075524	0.18399541	0.88179918	0.30738209
243	0.968	0.15822496	0.039639435	0.0048847037	0.48250074	0.098466513	0.11522443	0.012457678	0.07579726	-0.040008508	0.3343047	0.11278406	0.13613034	0.032385413	0.096059647	0.055991436	0.35387668	0.14648329	0.043458161	-0.062625222	0.046558169	0.0041823023	0.27204208	0.086035321	0.08216158	0.13443856	0.47396665	-0.097219431	0.40856406	0.56502808	0.16657106	0.12891707	0.47867073	0.027419898	0.39940978	0.54655198	0.041932759	0.16821527	0.89740935	-0.15617694	0.18252495	0.90410129	0.21328438	0.25703154	0.98268818	-0.098907142	0.25613316	0.99189615	0.13956165	0.094439745	1.0391712	0.02718211	0.26609348	1.4317824	-0.14141913	0.22812789	1.4490461	0.18534065	0.1818783	1.4919036	0.016242713	0.15360261	1.0754566	-0.21340869	0.070513988	1.1252219	0.27757298	0.36660768	0.90773371	-0.20005361	0.18915581	0.88089682	0.30764649
244	0.972	0.15825845	0.039649725	0.0048064766	0.50192857	0.098781217	0.11413214	0.012411	0.07595014	-0.039728596	0.353322	0.10999787	0.1354808	0.032564184	0.096220658	0.056207225	0.37202546	0.14438231	0.042820646	-0.062669248	0.046851437	0.004564861	0.2916545	0.08217263	0.081674905	0.13536789	0.47389896	-0.097348855	0.41522423	0.564541	0.16679457	0.13049473	0.47858499	0.027192734	0.40626674	0.54575853	0.042057753	0.17325655	0.89688353	-0.15594066	0.1887348	0.90315602	0.2134648	0.26280806	0.98183771	-0.099094055	0.26237244	0.99093703	0.13952391	0.10033944	1.0383114	0.027482919	0.27194558	1.4309565	-0.14144533	0.23413137	1.448173	0.18536072	0.18782501	1.4910753	0.016302178	0.16006694	1.0742144	-0.21311612	0.076547437	1.1244429	0.27749281	0.3743548	0.90794422	-0.19935695	0.19434613	0.87993522	0.30790495
245	0.976	0.15825955	0.039645767	0.0047730685	0.52131704	0.099236825	0.11302341	0.012305461	0.076146037	-0.039392805	0.37232999	0.10744124	0.13482096	0.032763572	0.09642496	0.05645107	0.39017131	0.14244377	0.042178072	-0.062692168	0.047151852	0.0050770169	0.31136169	0.078517624	0.081208229	0.13636874	0.47385902	-0.097502765	0.42186709	0.56388884	0.1670158	0.13202138	0.47856046	0.026927913	0.41308055	0.54480467	0.042261761	0.17826813	0.89632752	-0.15573341	0.19495622	0.90214232	0.21363532	0.26860715	0.98093952	-0.099285423	0.268653	0.98991536	0.13947645	0.1064164	1.0373728	0.027692518	0.27781271	1.4300761	-0.14143466	0.24014747	1.4472586	0.1853927	0.19376804	1.4901848	0.016376281	0.16654747	1.0729135	-0.21281431	0.082592217	1.1236062	0.27742015	0.38206758	0.90808915	-0.19866257	0.19957446	0.87891875	0.30815729
246	0.98	0.15824508	0.039627874	0.004753673	0.5406608	0.099851579	0.11193561	0.012130895	0.076391003	-0.039007406	0.39128524	0.10513803	0.13415607	0.033000335	0.09666755	0.056726472	0.40829356	0.14068747	0.041542327	-0.06267821	0.047468896	0.0057445559	0.33115074	0.075077084	0.08076381	0.13742954	0.47384183	-0.097670159	0.42850043	0.56307432	0.16722566	0.13334605	0.47860263	0.026682456	0.41987698	0.54370767	0.042569413	0.1832976	0.8957341	-0.15563081	0.20119546	0.9010651	0.2137956	0.27443483	0.97999328	-0.099477703	0.27497374	0.98883132	0.13942067	0.11259988	1.0363568	0.027898469	0.2837007	1.4291335	-0.14138951	0.24617945	1.4463008	0.18543346	0.19970011	1.4892294	0.016413044	0.17309029	1.071562	-0.21256184	0.088621265	1.1227213	0.27735119	0.38975222	0.90817764	-0.19796866	0.20484342	0.87785123	0.30840391
247	0.984	0.15823683	0.039602212	0.0047235949	0.55992023	0.10066306	0.11091758	0.011944388	0.076660247	-0.038580942	0.41015318	0.10309869	0.13347418	0.033297838	0.096939221	0.057041982	0.42637325	0.13914112	0.040909701	-0.062645949	0.047832603	0.0065274831	0.35095794	0.071881231	0.080272642	0.13847978	0.47382969	-0.097839966	0.43494862	0.56208292	0.16746459	0.13455153	0.47864331	0.026549353	0.42666593	0.54248448	0.042977463	0.18842036	0.89508825	-0.15574144	0.20744516	0.89992489	0.21394413	0.28029499	0.97900206	-0.099671404	0.28133116	0.98768462	0.13935836	0.1188272	1.0352794	0.028112295	0.28961091	1.4281297	-0.14132655	0.25222687	1.4453011	0.1854836	0.20560279	1.488204	0.016330109	0.17968708	1.0701721	-0.21235447	0.094578336	1.1217954	0.27727215	0.39741396	0.90821904	-0.197277	0.21015285	0.87673656	0.30864469
248	0.988	0.15824687	0.039577277	0.0046845913	0.57903752	0.10170807	0.109988	0.011866801	0.076904571	-0.038156053	0.4289275	0.10130919	0.13274314	0.033672607	0.097232024	0.057406145	0.4443925	0.13782741	0.040264074	-0.062612526	0.048258949	0.0073815395	0.37069566	0.068973495	0.0796427	0.13942995	0.4738075	-0.098004511	0.44105909	0.56092334	0.16779454	0.13588763	0.47861064	0.026521499	0.43343165	0.54114567	0.043449447	0.19367788	0.8943796	-0.15609012	0.21369353	0.89871897	0.21408012	0.28618393	0.97796837	-0.099872141	0.2877278	0.98647729	0.13929136	0.12499307	1.0341722	0.028198042	0.29553586	1.427082	-0.14126697	0.25828693	1.4442609	0.18554526	0.21146747	1.4871088	0.016089298	0.18631022	1.0687529	-0.2121648	0.10038709	1.1208291	0.27716127	0.40505422	0.90821411	-0.19658914	0.21550776	0.87557965	0.30888383
